<?xml version="1.0" encoding="UTF-8"?>
<svg id="Capa_2" data-name="Capa 2" xmlns="http://www.w3.org/2000/svg" viewBox="0 0 229.46 259.25">
  <defs>
    <style>
      .cls-1 {
        fill: #fff;
      }
    </style>
  </defs>
  <g id="Capa_1-2" data-name="Capa 1">
    <g>
      <path class="cls-1" d="M6.37,134.65c-2.89-.24-5.43,1.89-5.74,4.77-1.38,12.67-2.5,46.96,19.35,80.14,5.22,7.93,11.54,14.37,18.1,19.58,16.68,13.26,37.56,20.11,58.87,20.11h6.36c2.83,0,5.13-2.3,5.13-5.13v-2.53c0-20.7-4.73-41.2-14.31-59.55-13.4-25.68-39.05-53.37-87.76-57.38Z"/>
      <path class="cls-1" d="M225.05.4c-21.22-1.67-95.44-1.85-95.44,77.39,0,30.41.49,57.58.18,81.34h0v94.19c0,3.12,2.75,5.53,5.84,5.08,17.28-2.49,39.31-8.27,57.15-21.46,29.14-21.56,31.82-69.41,30.87-100.55-2.49-81.36,3.06-117.86,5.7-130.23.61-2.83-1.42-5.54-4.3-5.77Z"/>
    </g>
  </g>
</svg>